<svg id="Layer_1" data-name="Layer 1" xmlns="http://www.w3.org/2000/svg" viewBox="0 0 292.2 62"><defs><style>.cls-1{fill:#404f65;}.cls-2{fill:#dd3e5a;}.cls-3{fill:#ed784d;}.cls-4{fill:#f3ad91;}.cls-5{fill:#de3e59;}.cls-6{fill:#f9d7c9;}.cls-7{fill:#3e5065;}</style></defs><title>logo-chmi</title><path class="cls-1" d="M84.6,10.1a5.63,5.63,0,0,0-1.4-1,3.92,3.92,0,0,0-1.8-.4,4.29,4.29,0,0,0-4.3,4.4,4.34,4.34,0,0,0,4.3,4.4,4.5,4.5,0,0,0,3.2-1.4v1.5a5.83,5.83,0,0,1-3.2,1,5.36,5.36,0,0,1-5.5-5.5,5.47,5.47,0,0,1,5.6-5.6,5.21,5.21,0,0,1,3.2,1.1v1.5H84.6Z"/><path class="cls-1" d="M92.8,16.7a4.44,4.44,0,0,1-.8,1.1,3.49,3.49,0,0,1-2.2.8,3.2,3.2,0,0,1-3.3-3.5,3.18,3.18,0,0,1,3.2-3.5,2.88,2.88,0,0,1,2.5,1.2,4.06,4.06,0,0,1,.6,2.5H87.6a2.16,2.16,0,0,0,2.1,2.3,2.39,2.39,0,0,0,1.4-.5,5.5,5.5,0,0,0,.7-0.9Zm-1.2-2.3a2,2,0,0,0-4,0h4Z"/><path class="cls-1" d="M95,11.8h1.2v0.8a2.25,2.25,0,0,1,1.9-.9,2.2,2.2,0,0,1,1.9.9,3.21,3.21,0,0,1,.4,1.8v4.1H99.2V14.4a1.68,1.68,0,0,0-.3-1.2,1.29,1.29,0,0,0-1.1-.5,1.58,1.58,0,0,0-1.2.5,3.09,3.09,0,0,0-.5,1.8v3.5H95V11.8Z"/><path class="cls-1" d="M104.1,12.8v5.6h-1.2V12.8h-0.7V11.7h0.7V9.4h1.2v2.4h1.2v1.1h-1.2V12.8Z"/><path class="cls-1" d="M112.6,16.7a4.44,4.44,0,0,1-.8,1.1,3.49,3.49,0,0,1-2.2.8,3.2,3.2,0,0,1-3.3-3.5,3.18,3.18,0,0,1,3.2-3.5,2.88,2.88,0,0,1,2.5,1.2,4.06,4.06,0,0,1,.6,2.5h-5.2a2.16,2.16,0,0,0,2.1,2.3,2.39,2.39,0,0,0,1.4-.5,5.5,5.5,0,0,0,.7-0.9Zm-1.1-2.3a2,2,0,0,0-4,0h4Z"/><path class="cls-1" d="M114.8,11.8H116v0.7a1.76,1.76,0,0,1,1.5-.9,1.69,1.69,0,0,1,1,.3l-0.5,1a1.08,1.08,0,0,0-.7-0.2,1,1,0,0,0-.9.4,2.88,2.88,0,0,0-.4,1.8v3.5h-1.2V11.8Z"/><path class="cls-1" d="M129.2,8.9h-3.7V12h3.6v1.1h-3.6v5.3h-1.2V7.8h4.9V8.9h0Z"/><path class="cls-1" d="M130.3,15.1a3.5,3.5,0,0,1,7,0A3.5,3.5,0,1,1,130.3,15.1Zm1.2,0a2.37,2.37,0,0,0,2.3,2.5,2.26,2.26,0,0,0,2.3-2.5A2.31,2.31,0,1,0,131.5,15.1Z"/><path class="cls-1" d="M139.5,11.8h1.2v0.7a1.76,1.76,0,0,1,1.5-.9,1.69,1.69,0,0,1,1,.3l-0.5,1a1.08,1.08,0,0,0-.7-0.2,1,1,0,0,0-.9.4,2.88,2.88,0,0,0-.4,1.8v3.5h-1.2V11.8h0Z"/><path class="cls-2" d="M78.3,28.5h6.8V23.1h1.5V36.4H85.1V29.9H78.3v6.5H76.8V23.1h1.5v5.4Z"/><path class="cls-2" d="M97.5,34.3a3.25,3.25,0,0,1-1,1.3,4.19,4.19,0,0,1-6.9-3.3c0-2.5,1.5-4.4,4-4.4a3.7,3.7,0,0,1,3.1,1.5,5.94,5.94,0,0,1,.8,3.1H91a2.63,2.63,0,0,0,2.6,2.8,2.52,2.52,0,0,0,1.7-.6,3.13,3.13,0,0,0,.9-1.1Zm-1.4-2.9a2.41,2.41,0,0,0-4.8,0h4.8Z"/><path class="cls-2" d="M106.6,28.1H108v8.3h-1.4V35.2a3.6,3.6,0,0,1-2.8,1.4c-2.1,0-4-1.5-4-4.4s1.9-4.3,4-4.3a3.23,3.23,0,0,1,2.8,1.4V28.1Zm-5.4,4.2c0,1.8,1,3.1,2.7,3.1a2.87,2.87,0,0,0,2.8-3.1,2.87,2.87,0,0,0-2.8-3.1C102.5,29.2,101.2,30.2,101.2,32.3Z"/><path class="cls-2" d="M112.7,21.8V36.4h-1.4V21.8h1.4Z"/><path class="cls-2" d="M117.4,29.4v7H116v-7h-0.9V28.1H116v-3h1.4v3h1.4v1.3h-1.4Z"/><path class="cls-2" d="M120.7,21.8h1.4V29a3.14,3.14,0,0,1,2.4-1.2,2.9,2.9,0,0,1,2.4,1.1,3.79,3.79,0,0,1,.5,2.2v5.1H126V31.1a2,2,0,0,0-.4-1.5,1.56,1.56,0,0,0-1.4-.6,2,2,0,0,0-1.5.6,3.22,3.22,0,0,0-.6,2.2v4.3h-1.4V21.8Z"/><path class="cls-2" d="M135.7,36.4l2.2-14.1L143,33.6l5.2-11.3,2.1,14.1h-1.5l-1.3-9.3L143,37l-4.5-9.8-1.3,9.3h-1.5V36.4Z"/><path class="cls-2" d="M159.9,28.1h1.4v8.3h-1.4V35.2a3.6,3.6,0,0,1-2.8,1.4c-2.1,0-4-1.5-4-4.4s1.9-4.3,4-4.3a3.23,3.23,0,0,1,2.8,1.4V28.1Zm-5.4,4.2c0,1.8,1,3.1,2.7,3.1a2.87,2.87,0,0,0,2.8-3.1,2.87,2.87,0,0,0-2.8-3.1C155.8,29.2,154.5,30.2,154.5,32.3Z"/><path class="cls-2" d="M164.6,28.1H166V29a2.36,2.36,0,0,1,1.9-1.1,6.11,6.11,0,0,1,1.3.3l-0.7,1.3a1.6,1.6,0,0,0-.8-0.3,1.5,1.5,0,0,0-1.2.5,3.78,3.78,0,0,0-.5,2.2v4.4h-1.4V28.1Z"/><path class="cls-2" d="M172.4,21.8v9.4l3-3.1h1.9l-3.6,3.6,4.2,4.7H176l-3.3-3.8-0.4.4v3.4H171V21.8h1.4Z"/><path class="cls-2" d="M187.1,34.3a3.25,3.25,0,0,1-1,1.3,4.19,4.19,0,0,1-6.9-3.3c0-2.5,1.5-4.4,4-4.4a3.7,3.7,0,0,1,3.1,1.5,5.94,5.94,0,0,1,.8,3.1h-6.5a2.63,2.63,0,0,0,2.6,2.8,2.52,2.52,0,0,0,1.7-.6,3.13,3.13,0,0,0,.9-1.1Zm-1.4-2.9a2.41,2.41,0,0,0-4.8,0h4.8Z"/><path class="cls-2" d="M191.3,29.4v7h-1.4v-7H189V28.1h0.9v-3h1.4v3h1.4v1.3h-1.4Z"/><path class="cls-2" d="M201.6,23.1V36.4h-1.5V23.1h1.5Z"/><path class="cls-2" d="M205.2,28.1h1.4v1a3.14,3.14,0,0,1,2.4-1.2,2.9,2.9,0,0,1,2.4,1.1,3.79,3.79,0,0,1,.5,2.2v5.1h-1.4V31.2a2,2,0,0,0-.4-1.5,1.56,1.56,0,0,0-1.4-.6,2,2,0,0,0-1.5.6,3.22,3.22,0,0,0-.6,2.2v4.3h-1.4V28.1Z"/><path class="cls-2" d="M215.1,28.1h1.4v1a3.14,3.14,0,0,1,2.4-1.2,2.9,2.9,0,0,1,2.4,1.1,3.79,3.79,0,0,1,.5,2.2v5.1h-1.4V31.2a2,2,0,0,0-.4-1.5,1.56,1.56,0,0,0-1.4-.6,2,2,0,0,0-1.5.6,3.22,3.22,0,0,0-.6,2.2v4.3h-1.4V28.1Z"/><path class="cls-2" d="M224.5,32.3a4.4,4.4,0,1,1,4.4,4.4A4.31,4.31,0,0,1,224.5,32.3Zm1.5,0a2.91,2.91,0,1,0,5.8,0A2.91,2.91,0,1,0,226,32.3Z"/><path class="cls-2" d="M236.4,28.1l2.5,5.6,2.5-5.6H243l-4.1,8.8-4.1-8.8h1.6Z"/><path class="cls-2" d="M251.3,28.1h1.4v8.3h-1.4V35.2a3.6,3.6,0,0,1-2.8,1.4c-2.1,0-4-1.5-4-4.4s1.9-4.3,4-4.3a3.23,3.23,0,0,1,2.8,1.4V28.1Zm-5.4,4.2c0,1.8,1,3.1,2.7,3.1a2.87,2.87,0,0,0,2.8-3.1,2.87,2.87,0,0,0-2.8-3.1C247.2,29.2,245.9,30.2,245.9,32.3Z"/><path class="cls-2" d="M257.5,29.4v7H256v-7h-0.9V28.1H256v-3h1.4v3h1.4v1.3h-1.3Z"/><path class="cls-2" d="M261.5,24a1,1,0,0,1,1,1,1,1,0,0,1-2,0A1,1,0,0,1,261.5,24Zm0.7,4.1v8.3h-1.4V28.1h1.4Z"/><path class="cls-2" d="M264.9,32.3a4.4,4.4,0,1,1,4.4,4.4A4.31,4.31,0,0,1,264.9,32.3Zm1.5,0a2.91,2.91,0,1,0,5.8,0A2.91,2.91,0,1,0,266.4,32.3Z"/><path class="cls-2" d="M276.4,28.1h1.4v1a3.14,3.14,0,0,1,2.4-1.2,2.9,2.9,0,0,1,2.4,1.1,3.79,3.79,0,0,1,.5,2.2v5.1h-1.4V31.2a2,2,0,0,0-.4-1.5,1.56,1.56,0,0,0-1.4-.6,2,2,0,0,0-1.5.6,3.22,3.22,0,0,0-.6,2.2v4.3h-1.4V28.1Z"/><path class="cls-2" d="M289.7,30a1.21,1.21,0,0,0-1.2-.8,0.92,0.92,0,0,0-1,.9c0,0.6.4,0.8,1.3,1.2a5,5,0,0,1,2.1,1.3,1.68,1.68,0,0,1,.4,1.3,2.68,2.68,0,0,1-2.9,2.7,2.94,2.94,0,0,1-2.9-2.1l1.2-.5a2,2,0,0,0,1.7,1.4,1.35,1.35,0,0,0,1.4-1.3c0-.8-0.6-1-1.3-1.4a5.77,5.77,0,0,1-2-1.2,1.92,1.92,0,0,1-.4-1.2,2.18,2.18,0,0,1,2.4-2.3,2.52,2.52,0,0,1,2.3,1.5Z"/><path class="cls-3" d="M30.9,9.8h0.9A21.22,21.22,0,0,1,51,22l1.8-6.7L59.5,17A31.11,31.11,0,0,0,31.8,0H31.7L26.4,5.3Z"/><path class="cls-4" d="M59.4,17l-6.7-1.7L51,22a20.82,20.82,0,0,1,2,9,21.51,21.51,0,0,1-3.8,12.2l7-1.9,1.7,6.4a30.43,30.43,0,0,0,4.8-16.6A29,29,0,0,0,59.4,17Z"/><path class="cls-5" d="M31.6,52.2a21.21,21.21,0,0,1-.7-42.4L26.4,5.3,31.6,0a31,31,0,0,0,.2,62h1.1l4.3-4.9Z"/><path class="cls-6" d="M49.1,43.2a21.13,21.13,0,0,1-17.4,9.1H31.6l5.5,4.8L32.8,62A30.94,30.94,0,0,0,57.9,47.6l-1.7-6.4Z"/><path class="cls-7" d="M16.4,16.4l-0.1.2c0-.1.1-0.1,0.1-0.2h0Z"/><polygon class="cls-7" points="34.2 16.2 34.4 16.4 34.3 16.3 34.2 16.2"/><polygon class="cls-7" points="35 17.6 35.1 17.7 35 17.7 35 17.6"/><polygon class="cls-7" points="32.5 17.8 32.8 18 32.6 17.9 32.5 17.8"/><polygon class="cls-7" points="35.7 19.6 35.9 19.5 35.5 19.7 35.7 19.6"/><polygon class="cls-7" points="40.6 37.8 40.5 37.6 40.4 37.3 40.2 37.1 40.2 37.2 40.2 37.3 40.3 37.4 40.3 37.4 40.3 37.4 40.3 37.8 40.2 38 40.3 38.1 40.4 38.6 40.6 38.6 40.6 38.7 40.6 38.6 40.5 38.4 40.5 38.4 40.4 38 40.6 37.8"/><polygon class="cls-7" points="39.3 36.4 39 36.1 39 36 39 35.6 39 35.6 38.9 35.5 38.8 35.2 38.8 35.2 38.8 35.5 38.8 35.6 38.8 35.7 38.8 35.8 38.8 36 38.8 36.1 38.9 36.4 39.1 36.5 39.2 36.7 39.2 36.9 39.4 36.9 39.4 36.9 39.3 36.8 39.2 36.5 39.3 36.4"/><polygon class="cls-7" points="39.3 36.8 40.1 37.2 39.9 37.1 39.3 36.8"/><polygon class="cls-7" points="40.1 34.2 40 34.2 39.7 34.3 39.6 34.5 39.6 34.8 39.6 35.1 39.7 34.9 39.9 35 39.9 35.1 40.2 34.9 40.1 34.9 40.3 34.5 40.3 34.5 40.5 34.4 40.3 34.4 40.3 34.2 40.3 34.2 40.1 34.2"/><polygon class="cls-7" points="39.3 34.7 39.6 34.5 39.3 34.6 39.3 34.7"/><polygon class="cls-7" points="39.3 39 39.3 39 39.4 39.1 39.7 39 39.4 39.1 39.3 39"/><polygon class="cls-7" points="38.8 34.8 38.8 34.8 38.8 34.7 38.7 34.8 38.7 35 38.8 34.9 38.8 34.9 38.8 34.8"/><path class="cls-7" d="M29.5,30.9l0.4,0.3Z"/><polygon class="cls-7" points="39.3 41.1 39.5 41.3 39.5 41.3 39.3 41.1"/><polygon class="cls-7" points="41.1 33.5 41 33.3 41 33 40.9 32.9 40.9 33.1 40.9 33.4 41.1 33.5"/><path class="cls-7" d="M39.3,33.1l0.1,0.5Z"/><polygon class="cls-7" points="33.4 26.9 33.4 26.9 32.8 26.5 33.4 26.9"/><polygon class="cls-7" points="34.1 30.1 34 29.9 33.9 29.9 33.8 29.9 33.7 29.9 33.8 30.1 33.9 30.2 34 30.3 34.1 30.5 34.1 30.4 34.2 30.4 34.2 30.3 34.4 30.3 34.4 30.2 34.1 30.1"/><polygon class="cls-7" points="39.3 33.8 39.5 33.8 39.5 33.5 39.4 33.6 39.2 33.8 39.2 33.9 39.1 34 39.2 33.9 39.3 33.8"/><polygon class="cls-7" points="38.5 39.3 38.4 39.4 38.3 39.4 38.1 39.7 38.1 39.7 38.3 39.4 38.4 39.4 38.4 39.4 38.7 39.4 38.6 39.3 38.5 39.3"/><path class="cls-7" d="M38.3,32.7l-1.6.3Z"/><polygon class="cls-7" points="37.5 39.7 37.5 39.7 37.7 40.1 37.5 39.7"/><polygon class="cls-7" points="38.7 36.9 38.7 36.9 38.7 37 38.6 37.1 38.7 37.1 38.7 37 38.8 36.9 38.7 36.9"/><path class="cls-7" d="M39.3,35.2l-0.2.4Z"/><polygon class="cls-7" points="37.8 40.5 37.7 40.7 37.6 40.6 37.7 40.4 37.6 40.6 37.4 40.6 37.4 40.7 37.7 40.7 37.8 40.8 37.9 40.8 37.8 40.7 37.8 40.5"/><polygon class="cls-7" points="39 34.4 38.9 34.2 38.9 34.3 38.9 34.3 38.8 34.4 38.9 34.4 39 34.4"/><polygon class="cls-7" points="39.3 35 39.2 35 39.4 34.9 39.3 35"/><polygon class="cls-7" points="37 14.6 37.2 15.4 37.1 14.9 37 14.6"/><polygon class="cls-7" points="29.7 31.9 29.4 31.6 29.3 31.5 29.3 31.6 29.1 31.7 29.4 31.7 29.4 31.9 29.5 31.8 29.6 31.9 29.5 32 29.7 32 29.7 32.1 29.7 32.2 29.4 32.2 29.7 32.4 29.8 32.1 29.7 31.6 29.7 31.9"/><polygon class="cls-7" points="36.2 14.7 37 14.6 36.8 14.6 36.2 14.7"/><polygon class="cls-7" points="36.8 17.1 36.5 17 36.6 17.1 36.8 17.1"/><polygon class="cls-7" points="38.1 13.9 38.1 13.9 38 14.1 38.1 13.9"/><path class="cls-7" d="M36,18.5l0.2,0.1Z"/><polygon class="cls-7" points="36.6 17.5 36.9 17.7 36.8 17.7 36.6 17.5"/><polygon class="cls-7" points="38.3 12.5 38.4 12.3 38.4 12.1 38.4 12.1 38.2 12 38.1 12.1 38.3 12.6 38.4 12.6 38.5 12.7 38.5 12.5 38.3 12.5"/><path class="cls-7" d="M36.3,20.7l0.4-.1Z"/><polygon class="cls-7" points="36.6 17.5 36.6 17.5 36.7 17.2 36.6 17.5"/><polygon class="cls-7" points="36.2 20.2 36.2 20.2 36.1 20.6 36.2 20.2"/><polygon class="cls-7" points="27.7 31 28.3 31.3 28.1 31.2 27.7 31"/><polygon class="cls-7" points="27 32.2 27.3 31.6 27.1 32 27 32.2"/><polygon class="cls-7" points="28.2 26.4 27 25.7 27 25.7 28.2 26.4"/><polygon class="cls-7" points="28.9 31.3 28.9 31.7 28.8 30.9 28.9 31.3"/><polygon class="cls-7" points="25.4 30.4 26.1 30.5 25.5 30.4 25.4 30.4"/><polygon class="cls-7" points="25.9 29.7 25.2 29.1 25.9 29.8 25.9 29.7"/><polygon class="cls-7" points="39.6 12.4 39.5 12.4 39.3 12.5 39.5 12.5 39.6 12.5 39.6 12.5 39.6 12.4"/><polygon class="cls-7" points="34.7 40 34.6 39.9 34.6 40.1 34.7 40.1 34.7 40.1 35 40 34.8 39.9 34.7 40"/><polygon class="cls-7" points="33.7 12.3 33.7 12.4 33.9 12.3 34 12.3 34 11.8 33.8 11.7 33.8 12.1 33.8 11.9 33.7 11.9 33.7 12.1 33.6 12.1 33.7 12.2 33.6 12.4 33.7 12.3"/><polygon class="cls-7" points="34.1 12.8 34.2 12.5 34.3 12.4 34.3 12.2 34.2 12.4 34.1 12.3 34.2 12.4 34.1 12.9 34.1 12.8"/><polygon class="cls-7" points="35 11.3 35.1 11.1 35.1 11.1 35 11.2 34.7 11.4 34.8 11.4 35 11.3"/><path class="cls-7" d="M13.3,21.1l0.4-.2-0.3.3,0.3,0.2,0.8-.1,0.1,0.1h0.2l0.1,0.2-0.3-.1-0.5.2V21.6l-0.2.1-0.2.4,0.3-.2-0.3.8v0.4l0.1,0.3H14l0.2-.5V22.5l0.2-.4,0.1,0.1,0.1-.2h0.1V21.8L15.2,22H15.1l0.1,0.2-0.2.2v0.2l0.2-.1h0.1l0.1,0.4h0l0.2-.1V22.5l0.2-.2-0.1-.2,0.4,0.3,0.1-.2L16,21.6l-1.2-.3-0.1-.6H14.5l-0.2-.3H14.1v0.2l-0.3-.3v0.2H13.6c-0.2.3-.3,0.6-0.5,0.9h0Z"/><path class="cls-7" d="M15.5,18.1l-0.1.2,0.3,0.3-0.2.1h0.2l0.2,0.2L16,19.1l0.2,0.1V19l0.1-.1,0.1,0.2,0.1-.1-0.2-.2,0.3-.2-0.1-.2V17.8l-0.3-.3L17,17l0.2-.3h0.1V16.5l-0.1.1L17,15.9l-0.6.6v0.1l-0.1.2v0h0a6.47,6.47,0,0,0-.8.9v0.4Zm0.2,0.1h0.2L16,18.5H15.9l-0.1-.1H15.6Z"/><polygon class="cls-7" points="16.2 22.9 16 23 15.7 23 15.6 23.1 15.4 23.3 15.2 23.3 15.2 23.3 15.1 23.4 15.3 23.5 15.6 23.5 15.9 23.3 16 23.3 16.5 22.9 16.5 22.9 16.2 22.9"/><polygon class="cls-7" points="46 18.8 46.3 18.9 46.4 18.8 46.8 18.9 46.6 18.6 46.6 18.6 46.2 18.1 45.6 18 45.5 18.2 45 18.3 45.1 18.4 44.9 18.4 44.9 18.4 44.8 18.6 44.5 18.5 44.6 18.7 44.3 19.2 44.4 19.3 44.5 19.6 44.6 19.4 44.5 19.8 44.7 20.3 44.8 20.4 45.2 20.8 45.3 20.8 45.4 20.9 45.3 21 45.1 21.4 45 21.3 45 21.7 45 22 45.4 22.1 45.4 22.2 45.9 22.4 46.6 22.3 46.5 22 46.5 22 46.5 21.6 46.6 21.5 46.4 21.3 46.5 21.1 46.3 21.1 46.2 21 46.2 20.8 46.2 20.6 46.3 20.7 46.7 20.8 46.8 20.6 46.6 20.5 46.4 20.2 46.2 20.4 46.2 20.6 46.1 20.3 46.1 20.2 46.2 20 45.7 19.8 45.7 19.6 45.3 19.2 45.8 19.2 45.8 18.9 45.8 19 46 18.8"/><path class="cls-7" d="M37.9,10.8h0a0.1,0.1,0,0,1-.1-0.1h0Z"/><polygon class="cls-7" points="48.7 24.7 49 25.2 48.8 24.8 48.7 24.7"/><polygon class="cls-7" points="48.9 22.4 48.6 23.3 48.8 22.8 48.9 22.4"/><polygon class="cls-7" points="47 20.6 47.5 20.5 47.2 20.5 47 20.6"/><polygon class="cls-7" points="23.8 47.6 23.3 47.6 23.3 47.7 23.6 47.8 23.8 47.6"/><polygon class="cls-7" points="16.4 22.8 16.5 22.7 16.7 22.7 16.9 22.7 17.4 22.6 17.4 22.3 17.4 22.3 17.1 22.4 17.1 22.5 16.9 22.4 16.4 22.5 16.3 22.7 16.4 22.8"/><path class="cls-7" d="M25.1,47.3h0l0.2-.4-0.1.1-0.1-.1-0.1.2H24.9l-0.1.3h0.1Z"/><path class="cls-7" d="M23.1,46.8l-0.3,1.1Z"/><polygon class="cls-7" points="20.2 42.8 20.1 42.9 20.1 43 20.3 43.2 20.2 43 20.2 42.8"/><polygon class="cls-7" points="19.5 42 19.4 42 19.3 41.9 19.2 41.9 19.2 42.1 19.5 42.2 19.5 42.2 19.6 42.2 19.6 42 19.5 42"/><polygon class="cls-7" points="17.5 37.3 17.5 37.3 17.7 37.6 17.2 38 16.7 38.1 17.2 38 17.7 37.6 17.5 37.3"/><polygon class="cls-7" points="43.7 25.1 44.3 25 44.3 25 43.7 25.1"/><path class="cls-7" d="M41.6,12.5h0l0.1,0.2,0.2-.2c-0.1,0-.2-0.1-0.3-0.1h0l-0.1-.1a0.1,0.1,0,0,1-.1-0.1H41.3Z"/><path class="cls-7" d="M39.5,11.5V11.4a0.2,0.2,0,0,1-.2-0.1v0.2h0.2Z"/><path class="cls-7" d="M48.5,18.3h0v0.2H48.4l-0.1-.1v0.2l-0.1.1V18.6l-0.2.1v0.2l-0.1.2L48,19.6h0.2l0.1,0.1,0.2-.1,0.1-.2,0.1-.1h0V19.1l0.2-.1V18.8l-0.1-.1V18.4c0-.1-0.1-0.1-0.1-0.2l-0.2.1h0Z"/><polygon class="cls-7" points="43.1 20.4 43.4 20.7 43.3 20.6 43.1 20.4"/><polygon class="cls-7" points="40.3 33 40.3 33 39.8 33.2 40.3 33"/><polygon class="cls-7" points="43.6 21.2 43.6 21.1 43.8 21.4 43.6 21.2"/><polygon class="cls-7" points="43.9 20.4 43.3 20.6 43.7 20.5 43.9 20.4"/><polygon class="cls-7" points="39.5 27.3 39.4 27.4 39.4 27.6 39.5 27.5 39.5 27.4 39.5 27.4 39.7 27.2 39.8 27.2 39.9 27.1 40 27.2 40 27 40 26.7 39.9 26.9 39.9 27 39.9 27 39.8 27.1 39.7 27.1 39.5 27.3"/><path class="cls-7" d="M44.8,14.7L45,14.8V15h0l0.1-.2H45l-0.1-.2,0.1-.1a0.1,0.1,0,0,1-.1-0.1h0Z"/><path class="cls-7" d="M45.9,28.4l-1.1.2Z"/><polygon class="cls-7" points="41.8 24.1 41.9 24 41.9 24 41.8 24.1"/><polygon class="cls-7" points="42.2 29.8 41.1 29.9 41.1 29.9 42.2 29.8"/><path class="cls-7" d="M43.1,31l0.1-.2Z"/><path class="cls-7" d="M30.7,30.6l0.4-.5Z"/><path class="cls-7" d="M48.8,18.5v0.2l0.1,0.1V19l-0.2.1v0.2h0l-0.1.1-0.1.2-0.2.1-0.1-.1H48l-0.1-.5,0.1-.2V18.7l0.2-.1v0.1l0.1-.1V18.4l0.1,0.1h0.1V18.4l0.1-.1,0.1,0.1,0.1-.1a22.18,22.18,0,0,0-3.7-3.8l-0.1.1,0.1,0.2,0.1-.1L45,15l0.1,0.1H45V14.9l-0.2-.1,0.1-.3h0a22.34,22.34,0,0,0-3-2l-0.2.2-0.1-.2H41.5l-0.3-.3h0.1a14.17,14.17,0,0,0-1.8-.8v0.1H39.3V11.3c-0.2-.1-0.5-0.2-0.7-0.3l-0.1.2L39,11.4l-0.7.1v0.2l-0.8-.1L37,12l0.1,0.5,0.3-.1v0.2l-0.1.5-0.2.2-0.3-.5-0.2.1-0.1.7-0.2.4H36.2l-0.2.3-0.1.2v0.1H35.6l-0.1-.2,0.1-.1-0.3.1-1,.4,0.1,0.1-0.1-.1-0.5-.3-0.8.4,0.1-.2H32.8V14.5h0l-0.1-.1,0.3-.7,0.2-.1L33,13.5V12.8l-0.3.3-0.4.1-0.1.8,0.2,0.1,0.1,0.2v0.2H32.4l0.1,0.3H32.4v0.3l-0.3-.2-0.2.3h0l-0.1-.1-0.5.2-0.3.6L31.2,16l-0.3.1-0.4.2-0.2.1-0.1.4-0.3.1-0.1.2H29.5l-0.1-.2H29.2l0.1,0.5H29l-0.1-.1H28.8l-0.4.2,0.2,0.3h0.2L29.4,18l-0.1.2,0.4,0.3-0.1,1.2H28.7l-0.5-.1H27.8l-0.2-.1H27.4l-0.1.1H27.1l-0.1.1,0.2,0.2v0.5l-0.3.9L27,21.5h0.1l-0.1.7h0.8l0.1,0.3,0.2,0.1,0.3-.2,0.2-.1h0.6l0.2-.3h0.2l0.1-.3,0.2-.2-0.2-.2,0.5-.6,0.3-.1,0.4-.3V19.9l0.3-.3,0.6,0.2H32l0.3-.3h0.1l0.3-.2,0.4,0.2,0.2,0.4,0.2,0.2,0.1,0.1L34,20.6h0.2l0.2,0.2h0.1L34.6,21h0.1l0.2,0.5-0.1.1v0.3L34.9,22l0.2-.2V21.7l0.1-.1V21.4L35,21.3V21.1l0.2-.1,0.2,0.1,0.1,0.2h0.1V21.2L35.4,21,35,20.8l-0.2-.1V20.6l0.1-.1-0.1-.1-0.3.1-0.3-.3L34,19.6l-0.4-.2V18.9l0.5-.2h0v0.1h0l-0.2.1,0.2,0.3,0.2-.2,0.1,0.1v0.1l0.2,0.2H34.5l0.2,0.3H35l0.1,0.1,0.4,0.4,0.3,0.2,0.1,0.1-0.1.5L36,21.2v0.1l0.2,0.3,0.1,0.3h0.5L36.9,22H36.8l-0.4-.1-0.1.1,0.2,0.2v0.1l0.1,0.1,0.1-.1,0.1,0.3,0.1-.2L37,22.5V22.2L36.8,22l0.1,0.1L37,22l-0.1-.2h0.2l0.1,0.1V21.7l-0.5-.2,0.1-.1V21.3h0.1L36.8,21l0.1-.2v0.1L37.1,21V20.9L37.2,21V20.9h0L37.3,21l-0.1-.1L37,20.8l0.5-.1,0.3,0.1h0v0.1H38l-0.2.1v0.1l0.4-.3h0.4V20.7l-0.3-.2V20.4h0V20l0.1-.1V19.7l0.2-.1V19.1L39,19V18.7l0.2-.1,0.2-.3,0.4-.1-0.1.2,0.6,0.1v0.1l-0.4.2L40.2,19v0.3l0.6-.2h0.4V18.9l-0.4.1-0.4-.4h0.4l0.8-.5h0.5l0.1,0.1-0.6.2,0.3,0.2-0.3.3H41.4l0.8,0.6,0.1,0.1,0.1,0.2L42.8,20l0.1,0.5h0l-0.4.3H41.6l-0.8-.5H40.2l-0.5.4L39,20.6l0.1,0.2-0.7.2-0.2-.1-0.3.2v0.1h0.2v0.4H37.9l0.4,0.5,0.5,0.1,0.1,0.2,0.3-.1V22.1l0.7,0.3,0.6-.3,0.2,0.1,0.2-.1-0.1.2v0.6h0l-0.3.6-0.2.6-0.1.1-0.3.1-0.4-.2H38.9l-0.3.2L37.5,24l-0.1.1V23.9l-0.5.1V23.8l-0.5-.1-0.5.4L36,24.4l-0.3.3-0.3-.2-0.7-.2L34.4,24l-0.6-.2H33.5l-0.2-.1L33,23.5l-0.3-.2,0.4-.4V22.7L33,22.6l0.2-.2V22.2l-0.2.1V22.2l-0.3-.1-0.2.1h0l-0.7-.1-0.3.2-0.2-.1H30.8l-0.2.1-0.6.2-0.2.1H29.6l-0.4.3h0l-0.4-.1H28.3L28,22.7H27.8l-0.2.6-0.5.3-0.2.3-0.2.5v0.2l0.1,0.1-0.2.4-0.4.3-0.4.1h0l-0.2.4-0.4.1-0.2.5-0.4.5-0.2.6v0.1L24.6,28l-0.1.3,0.1,0.2-0.1.7-0.1.3-0.2.3,0.2,0.4-0.1.1v0.2h0l0.4,0.2,0.1,0.2h0L25,31v0.2l0.3,0.1v0.2l0.1,0.3,0.1,0.1L25.6,32v0.1l0.2,0.1h0.3v0.1h0.1l0.1,0.1h0.1l0.4,0.4h0.1L27,32.9h0.4l0.1-.1,0.3-.1h0.1l0.4-.1,0.2,0.1h0.2l0.2,0.1,0.2-.1h0.2l0.2-.2h0.2l0.1-.1h1.1l0.3,0.3v0.2l0.2,0.2h0l0.1,0.1,0.1-.1h0.1l0.1-.1h0.3l0.1-.1h0L32.3,33h0.1v0.1l0.1,0.1h0.1v0.1l0.1,0.1-0.1.4-0.1.2,0.1,0.1h0v0.2H32.5v0.2l-0.2.1,0.2,0.3,0.2,0.3L33,35.4h0v0.1l0.3,0.2v0.1h0l0.1,0.1v0.2h0.1v0.1h0l0.1,0.2,0.1,0.4V37l0.1,0.3,0.1,0.1h0v0.1h0v0.3l-0.2.2H33.6v0.1l-0.1.1-0.2.7-0.1.1v0.8L33.3,40l0.5,1L34,41.2v0.6l0.1,0.3v0.2l0.1,0.6,0.1,0.2v0.1l0.2,0.2h0v0.1l0.1,0.1,0.3,0.7,0.2,0.2v0.3l-0.1.1H34.9V45h0L35,45.2v0.1l0.1,0.1V45.3h0.1v0.1h0.1v0.1h0.2l0.1-.1H36l0.1-.1h0.3l0.1-.1,0.4,0.1,0.1-.1,0.2,0.1V45.2h0.3l0.6-.5,0.1-.2,0.2-.2,0.3-.5,0.1-.3,0.3-.2,0.2-.7h0V42.4H39.2l-0.1-.1,0.1-.2h0.1l0.2-.1,0.3-.1,0.2-.2V41.6H39.9l0.1-.3V40.9h0V40.7l-0.1-.3-0.1-.1V40.1L40,40l0.3-.3h0l0.1-.1h0.1l0.1-.1,0.4-.2h0.2l0.1-.1,0.2-.1V39l0.1-.1,0.2-.3H41.7l0.1-.2-0.1-.1H41.6V38h0l0.1-.1-0.1-.3,0.1-.2V37.3h0l-0.2-.2-0.2-.5,0.1-.1V36.2L41.2,36l0.1-.4V35.5h0.1l0.2-.4V34.9l0.2-.1,0.1-.1H42l0.1-.1,0.3-.3V34.2h0.1l0.5-.5,0.4-.2,0.2-.3,0.4-.3,0.2-.3,0.2-.2V32.2l0.2-.3V31.8l0.1-.1,0.2-.3V31.1L45,31V30.8l0.1-.1-0.2-.1-0.1.1-0.6.1H43.9L44.2,31l-0.3-.1-0.2.2H43.5l-0.3-.3-0.1.2h0l0.1-.2H43l0.2-.2-0.4-.5-0.3-.3-0.2-.1L42,29.6,41.8,29l-0.2-.2-0.3-.3-0.1-.7V27.7h0l-0.1-.1V27.4L41,27.3l-0.3-.2h0V26.8h0l-0.2-.2-0.4-.7V25.7L40,25.6V25.5l-0.3-.3V25.1L39.6,25l0.1-.2V25l0.2,0.2v0.1l0.2,0.3h0.1V25.5l0.2-.4h0v0.3l-0.1.2h0.2l0.6,0.8,0.1,0.4h0.1L41.6,27l0.2,0.5v0.4L42,28.1h0.1l0.3,0.4v0.1l0.2,0.3L42.8,29l0.1,0.4v0.1L43,29.6l0.3,0.8h0.5l0.2-.2h0.4l0.3-.2h0.2l0.2-.2,1-.3V29.4l0.3-.1,0.4-.2h0.3l0.1-.3h0.3l0.1-.3,0.3-.1V28.1l0.1-.2h0.1l0.4-.6-0.2-.1L48,26.9l-0.5-.1-0.3-.3h0V26l-0.6.7H46v0.1l-0.1-.1-0.2-.1V26.5l0.1-.4L45.6,26l-0.1.2v0.2h0l-0.1-.2-0.1-.1V25.8l-0.4-.5-0.1-.2-0.1-.2-0.1.1,0.1-.1-0.1-.1h0l0.1,0.1V24.8l0.2-.2L45,24.8l0.2-.1,0.5,0.8L46,25.6l0.1,0.2L46.7,26l0.5-.2,0.2,0.1,0.1,0.4,1.3,0.2h0l1.4-.1,0.2,0.1v0.1l0.1,0.1L50.6,27h0.2L51,27.3h0.3l0.2-.1-0.1.2H51.1l0.4,0.5,0.4-.1,0.1-.3V27.4h0.2l-0.1.1,0.1,1.2,0.1,0.6,0.3,0.6V30a18.49,18.49,0,0,0-3.8-11.5h0ZM31.6,16.4h0Zm0.1,0.3h0Zm-0.2.3h0Zm1,0.8h0L32.8,18Zm1.7-1.6,0.2,0.1h0Zm0.6,2h0l0.1,0.1Zm0.2-.6h0v0Zm0.7,2-0.1.1,0.3-.3Zm0.2,0.3h0v0Zm0.3,0.3v0h0ZM36,18.5h0l0.2,0.2Zm0.3,2.2h0l0.5-.1Zm0.3-3.2h0l0.1-.3-0.1.3,0.2,0.2h0ZM36.5,17l0.3,0.1L36.6,17H36.5ZM37,14.6l-0.8.1,0.6-.1H37l0.1,0.3,0.2,0.5Zm1.1-.7-0.1.2,0.1-.2h0Zm0.3-1.3h0l-0.2-.5,0.1-.1h0.1v0.2l-0.1.2h0.1v0.2h0Zm1.1-.1-0.1-.1,0.2-.1,0.1,0.1v0.1H39.5Zm0.1,3.2-0.1-.6,0.1,0.6h0ZM25.2,29.1l0.7,0.6h0Zm0.2,1.3h0L26,30.5ZM27,32.2l0.1-.2,0.2-.4Zm0-6.5h0l1.2,0.7h0ZM27.7,31l0.4,0.2,0.2,0.1Zm1.2,0.3-0.1-.4L29,31.7Zm0.8,1.1-0.3-.2h0.2l0.1-.2H29.6l0.1-.1-0.1-.1H29.5V31.6H29.2l0.2-.1V31.4l0.1,0.2,0.3,0.2V32Zm-0.2-1.5h0l0.3,0.3ZM31,29.3v-1h0v1Zm-0.3,1.3h0l0.4-.5Zm2.7-3.7-0.6-.5,0.6,0.5h0Zm0.8,3.4h0l-0.1.1L34,30.3H33.9V30.2L33.8,30h0.4v0.2h0.3v0.2Zm0.2-3.1h0l0.1,0.6Zm0.3,6.2h0v0Zm0,6.7H34.5V40l0.2,0.1,0.1-.2L35,40Zm1.2,1.8h0v0Zm6.3-12.1-1.1.1h0Zm-1.3,3.1h0L41,33.3l0.1,0.2-0.2-.2L40.8,33Zm-1.7,1V33.8l0.2-.2-0.1-.5h0l0.1,0.5h0v0.2H39.3l-0.1.1h0ZM39.3,35h0Zm0,0.2h0l-0.2.4Zm-0.4-.9h0L39,34.4H38.8Zm-1.7,3.9,0.1-.6V37.5Zm0.6,2.6-0.1-.1H37.5V40.5h0.1l0.2-.2-0.1.2v0.1l0.1-.2v0.2l0.1,0.1Zm-0.3-1.1h0l0.2,0.4ZM36.7,33l1.5-.3h0Zm1.7,6.4h0l-0.1.1-0.2.3H38l0.2-.4h0.2ZM38.7,37h0V36.8h0l0.1,0.1Zm0.6,4.1,0.2,0.1h0Zm0.3,0.7v0.5h0V41.8Zm-0.2-2.7L39.3,39h0l0.1,0.1,0.3-.1Zm-0.1-2.3h0v0.1l-0.1-.1V36.7l-0.1-.3-0.2-.1L38.8,36V35.9l-0.1-.2V35.5l-0.1-.1V35h0V34.7L38.7,35V34.8l0.1-.1v0.1h0v0.1h0v0.3l0.1,0.3H39v0.6l0.3,0.2-0.1.1,0.1,0.4,0.6,0.4L40,37.3Zm1.2,1.6h0l0.1,0.2v0.1l-0.1-.1H40.4l-0.1-.5L40.2,38l0.1-.2V37.4h0l-0.1-.1V37.2h0l0.2,0.1,0.1,0.3,0.1,0.2h0l-0.2.2Zm-0.2-4h0.2l-0.2.1h0l-0.2.4L40.2,35l-0.3.2V35.1L39.7,35l-0.1.2V34.9l0.1-.3-0.4.1h0l0.3-.1V34.4l0.3-.1,0.1-.1h0.2Zm0-1.4h0l-0.5.2Zm-0.5-5.9,0.1-.1H39.8l0.1-.1v0.3l-0.1-.1-0.1.1H39.6l-0.2.2h0l-0.2.1,0.1-.1,0.1-.2,0.2-.2Zm2-3,0.1-.1h0Zm4.1,4.3h0l-1.2.2Zm-2.8-8,0.2,0.2,0.6-.2-0.2.1-0.4.1,0.1,0.1Zm0.5,0.8,0.2,0.3-0.2-.3h0Zm0.1,3.9h0Zm0.6-4.5V20.3h0v0.3Zm1.5-1.4H45.4l0.4,0.4v0.2L46.2,20l-0.1.2v0.1l0.1,0.3V20.4l0.3-.1,0.2,0.3,0.2,0.1-0.1.2-0.4-.1-0.1-.1,0.1,0.2-0.2.1,0.1,0.2h0.3l-0.2.2,0.2,0.2-0.1.1v0.4h0v0.2l-0.7.1-0.4-.2-0.1-.1L45,22V21.3l0.1,0.1,0.2-.5h0.2l-0.1-.1H45.3l-0.4-.4-0.1-.1-0.2-.5V19.4l-0.1.1-0.1-.3H44.3l0.3-.6V18.4l0.2,0.2,0.1-.2H45V18.3l0.5-.1,0.2-.2,0.6,0.1,0.3,0.6h0.1L46.9,19l-0.4-.1-0.2.1L46,18.8l-0.2.2H45.7ZM47,20.6h0Zm1.9,1.8-0.1.4-0.2.5Zm-0.2,2.3h0l0.2,0.5Z"/><path class="cls-7" d="M41.6,12.3a0.1,0.1,0,0,1-.1-0.1l0.1,0.1h0Z"/><polygon class="cls-7" points="31.5 17 31.5 17 31.3 16.9 31.5 17"/><path class="cls-7" d="M36.3,11l0.6,0.5,1.2-.4h0.4a1.85,1.85,0,0,0-.7-0.2H37.7l-1.3-.3v0.1Z"/><path class="cls-7" d="M31.3,10.2l0.4,0.2-0.4.1v0.4h0.3l0.1-.1V11l0.3-.2v0.1l-0.2-.1-0.5.1v0.2l0.2,0.3,0.2-.3h0.2l-0.1.1-0.2.4h0.1l-0.3.4,0.3-.1-0.1.3H31.5v0.2l0.6,0.4,0.5-.4,0.1-.3h0.2l0.1-.4L33.1,12l0.2,0.1h0v0.1l0.4,1.2,0.2,0.2-0.2.2,0.2,0.3v0.2l0.4-.1V13.9l0.3-.1h0.3l0.3-1.2-0.1-.2,0.7-.4-0.7-.1h0.6l0.2-.2L35.1,11,35,10.3h0.1V10.1C34,10,32.9,9.9,31.8,9.9H31.7l0.1,0.2Zm3.7,1,0.1-.2v0.1l-0.1.2H34.7Zm-0.9,1.1h0l0.2-.1v0.3l-0.1.1v0.3l-0.1.1,0.1-.4Zm-0.5-.2h0l0.1-.2h0l0.1,0.2V11.7L34,11.8v0.5H33.9l-0.2.1V12.3l-0.2.1,0.1-.2V12.1Z"/><polygon class="cls-7" points="40 23.2 40.3 23 40.3 23 40.4 23 40.4 22.9 40.5 22.7 40.4 22.8 40.1 22.9 40.1 22.9 40.1 23 40 22.9 39.8 23 39.9 23.1 40 23.2"/><polygon class="cls-7" points="35.9 11.4 35.9 11.4 36 11.3 35.9 11.2 35.9 11.3 35.8 11.3 35.9 11.4"/><polygon class="cls-7" points="36.7 11.3 36.7 11.4 36.8 11.4 36.7 11.3"/><polygon class="cls-7" points="34.4 14.2 34.3 14.1 34.3 14.2 34.4 14.3 34.4 14.2"/><polygon class="cls-7" points="35 13 34.9 13 34.9 13.2 34.8 13.4 34.8 13.6 34.9 13.3 35 13"/><polygon class="cls-7" points="35.6 13 35.6 12.8 35.6 12.7 35.6 12.7 35.5 12.7 35.3 13 35.4 13.2 35.6 13"/><polygon class="cls-7" points="36.6 12.6 36.6 12.6 36.7 12.5 36.8 12.5 36.9 12.3 36.8 12.2 36.5 12.3 36.5 12.4 36.6 12.5 36.6 12.6"/><polygon class="cls-7" points="36.9 12.1 36.8 12 36.6 12.1 36.7 12.2 36.9 12.1"/><polygon class="cls-7" points="34 14.6 33.9 14.5 33.8 14.6 33.8 14.6 34 14.6"/><polygon class="cls-7" points="33.3 14.4 33.2 14.3 33.2 14.4 33.3 14.5 33.4 14.5 33.4 14.3 33.3 14.4"/><polygon class="cls-7" points="33.3 14.2 33.4 14.2 33.4 14.3 33.5 14.3 33.5 14.2 33.6 14.1 33.5 14 33.7 13.8 33.6 13.7 33.5 13.7 33.5 13.9 33.4 13.8 33.3 13.9 33.2 13.9 33.2 14 33.3 14.2"/><polygon class="cls-7" points="33 14 33 14 32.9 14 32.8 14.1 32.8 14.2 33 14.3 33.1 14.2 33.1 14 33 14"/><polygon class="cls-7" points="16.8 29.5 16.7 29.4 16.6 29.5 16.8 29.7 16.8 29.5"/><polygon class="cls-7" points="20.1 31.6 20.2 31.7 20.5 31.7 20.6 31.6 20.4 31.5 20.1 31.6"/><polygon class="cls-7" points="19.4 31.4 19.3 31.2 18.8 31.1 18.8 31.1 18.6 31.2 18.3 31.1 18.2 31.2 18.4 31.2 18.5 31.5 17.9 31.6 18 31.7 18.7 31.6 18.8 31.7 18.8 31.8 19.1 31.5 19.2 31.6 19.3 31.5 19.7 31.6 19.6 31.4 19.4 31.4"/><polygon class="cls-7" points="16.7 31.6 17.1 31.8 17.2 31.7 17.4 31.7 17 31.5 16.7 31.6"/><path class="cls-7" d="M17.7,30.8H17.4V30.7H17.3l-0.7-.4H16.3L15.9,30l-1.2.2-0.1.3,0.4-.1,0.2-.2h0.3l-0.1.1,1.1,0.3,0.1,0.2,0.5,0.1-0.3.2h0.8L18,31Z"/><path class="cls-7" d="M15.2,30.7l0.1-.1-0.1-.1v0.2Z"/><polygon class="cls-7" points="37.6 21.1 37.6 21.1 37.5 21.1 37.5 21.1 37.6 21.2 37.6 21.1"/><polygon class="cls-7" points="37.4 21.9 37.5 22 37.5 21.9 37.5 21.9 37.4 21.9"/><polygon class="cls-7" points="36.1 21.7 36 21.8 36.2 21.8 36.1 21.7"/><polygon class="cls-7" points="37.5 23 37.8 23 37.9 23 37.9 22.9 37.8 22.9 37.7 22.9 37.4 22.8 37.3 22.9 37.1 22.8 37 22.9 37.3 22.9 37.5 23"/><polygon class="cls-7" points="37.7 22.3 37.7 22.3 37.7 22.2 37.6 22.3 37.7 22.3"/><polygon class="cls-7" points="37.9 21.4 37.9 21.5 38.1 21.5 38 21.3 37.8 21.4 37.8 21.4 37.9 21.4"/><polygon class="cls-7" points="37.3 21.9 37.4 21.9 37.4 21.8 37.3 21.8 37.2 21.6 37.1 21.6 37 21.5 36.9 21.5 37.1 21.7 37.2 21.7 37.3 21.9"/><polygon class="cls-7" points="37.8 21.7 37.8 21.8 37.9 21.7 37.8 21.6 37.8 21.7"/><polygon class="cls-7" points="38.5 22.6 38.6 22.4 38.4 22.6 38.4 22.7 38.5 22.6"/><polygon class="cls-7" points="37.5 20.9 37.5 20.8 37.4 20.8 37.4 20.8 37.4 20.9 37.5 20.9"/><path class="cls-7" d="M26.5,15.7l0.2,0.1-0.1.1h0.2l-0.1.1h0.1v0.1h0.1l0.5-.2V15.8l0.3-.1h0.1l0.1-.4V15l-0.1-.2,0.1-.1,0.2-.1V14.4H28l0.1-.1L28,14.1l-0.3.1-0.1-.1-0.1.2h0V14.2l-0.5.3,0.2,0.1-0.1.2-0.3-.1s-0.2.2-.1,0.2h0.2l-0.1.2,0.4,0.1-0.2.1-0.1.2H27l-0.2.2H26.5Z"/><polygon class="cls-7" points="28.1 14 28.1 14.1 28.2 14 28.1 14"/><polygon class="cls-7" points="28 13.1 27.8 13.3 28 13.5 28.1 13.4 28 13.6 28 13.8 28 13.8 28 14.1 28.1 13.9 28.1 13.8 28.1 13.7 28.1 13.8 28.2 13.7 28.3 13.8 28.2 13.8 28.3 14 28.2 14.3 28.2 14.4 28.2 14.4 28.5 14.4 28.8 14.2 28.6 14.5 28.7 14.7 28.9 14.7 28.9 15.1 28.6 15.1 28.3 15.4 28.5 15.3 28.5 15.6 28.1 15.9 28.2 16 28.4 15.9 28.4 16 28.6 16 28.7 16.1 29 15.9 28.8 16.2 28.4 16.2 28 16.7 28.2 16.7 28.2 16.6 28.6 16.6 28.7 16.4 28.9 16.4 29 16.5 29.3 16.3 29.5 16.4 30 16.3 30.2 16.1 30 16.1 30 15.9 30 15.9 30.1 15.8 30.2 15.8 30.3 15.5 30.2 15.4 30 15.3 29.8 15.4 29.9 15.2 29.7 15 29.8 15 29.8 14.9 29.5 14.5 29.4 14.5 29.3 14 28.9 13.7 28.8 13.8 28.7 13.7 28.9 13.6 29.1 13.1 29.2 13 29.2 12.8 28.8 12.8 28.5 12.9 28.5 12.8 28.5 12.7 28.7 12.4 28.8 12.3 28.5 12.3 28.3 12.3 28.1 12.5 28.1 12.6 28 12.7 28 13 28 13 28 13.1"/><path class="cls-7" d="M28.4,14.6l-0.1.1h0.1V14.6Z"/><polygon class="cls-7" points="27.8 13.9 27.8 14 27.9 13.9 27.8 13.8 27.8 13.9"/><polygon class="cls-7" points="27.8 13.4 27.8 13.5 27.9 13.5 27.8 13.7 27.9 13.7 28 13.6 27.8 13.4"/><polygon class="cls-7" points="27.6 13 27.7 13 27.8 13.1 27.9 13.2 28 13.1 27.9 13.1 27.8 12.9 27.6 13"/><polygon class="cls-7" points="27.6 12.8 27.8 12.7 27.7 12.6 27.8 12.6 27.8 12.4 27.7 12.5 27.6 12.6 27.6 12.6 27.6 12.7 27.6 12.8"/><path class="cls-7" d="M28.7,11.9v0.2h0.1Z"/><polygon class="cls-7" points="29.3 11.5 29.4 11.5 29.4 11.3 29.3 11 29.3 11.3 29.3 11.4 29.3 11.5"/><polygon class="cls-7" points="32.4 21.1 32.3 21.2 32.3 21.4 32.5 21.5 32.6 21.4 32.7 21.4 32.7 21.4 32.8 20.8 32.6 20.6 32.4 20.7 32.3 20.7 32.3 20.8 32.4 20.9 32.4 21.1"/><polygon class="cls-7" points="33.8 22 34 22.2 34.1 22.2 34.4 22.4 34.5 22.2 34.4 22.1 34.6 21.8 34.5 21.7 34 21.9 33.9 21.8 33.8 21.8 33.7 21.8 33.6 21.9 33.6 22 33.8 22"/><polygon class="cls-7" points="32.6 20.5 32.7 20.2 32.7 20.1 32.7 19.8 32.6 20 32.4 20.1 32.5 20.4 32.6 20.5"/><polygon class="cls-7" points="30.8 21.2 30.7 21.2 30.7 21.1 30.5 21.2 30.5 21.2 30.7 21.4 30.8 21.2"/><polygon class="cls-7" points="31.1 21.1 31 21 31 21.1 31 21.1 31.1 21.2 31.1 21.1"/><polygon class="cls-7" points="15.8 18.5 16 18.5 15.9 18.2 15.7 18.2 15.5 18.3 15.7 18.3 15.8 18.5"/><path class="cls-7" d="M19.8,14.3h0l0.1-.1V14l-0.1.1v0.2Z"/><polygon class="cls-7" points="20.7 13.4 20.9 13.6 20.9 13.6 20.9 13.4 20.8 13.4 20.7 13.4"/><path class="cls-7" d="M16.3,16.8V16.6l0.1-.2V16.3l-0.1.1h0v0.4Z"/><polygon class="cls-7" points="24.6 21.3 24.7 20.6 24.4 20.8 24.4 20.7 24.6 20.4 24.3 20.5 24.5 20.1 23.7 20 23.8 19.8 23.6 19.7 23.5 20 23.4 19.8 23.8 19 23.5 19 23.3 19.4 23.3 19.7 22.9 20.2 22.6 20.8 23 20.8 23.3 20.9 23.7 20.8 23.7 20.9 24 20.8 23.7 21.2 24.1 21 24.2 20.7 24.3 21.2 24.6 21.3"/><polygon class="cls-7" points="21.2 21.3 21.2 21.2 21.2 21.1 21.1 21.2 21.4 21.5 21.5 21.5 21.6 21.6 21.7 21.5 21.8 21.4 21.5 21.4 21.2 21.3"/><polygon class="cls-7" points="22.3 21.5 22.3 21.3 22.3 21.1 22.2 21.2 22.2 21.3 22 21.6 22 21.8 22.2 21.7 22.3 21.7 22.5 21.6 22.4 21.5 22.3 21.5"/><polygon class="cls-7" points="21.7 20 21.6 19.9 21.2 19.8 21.1 19.8 21.3 19.9 21.4 20.1 21.7 20.2 21.9 20.1 21.9 20.1 21.7 20"/><polygon class="cls-7" points="18.5 23.7 18.7 23.6 18.4 23.7 18.1 23.8 18.1 23.8 18.2 23.8 18.5 23.7"/><path class="cls-7" d="M25.7,37.4l-0.2-.1-0.1.1v0.4h0.4l0.2-.2V37.4C26,37.3,25.7,37.4,25.7,37.4Z"/><polygon class="cls-7" points="25.4 37.1 25.4 37.2 25.6 37.2 25.4 37.1"/><polygon class="cls-7" points="25.2 37.4 25.2 37.5 25.3 37.4 25.2 37.3 25.2 37.4"/><path class="cls-7" d="M13.4,20.4h0.2V20.2l0.3,0.3V20.3h0.2l0.2,0.3h0.2l0.1,0.6,1.2,0.3L16.1,22l-0.1.2-0.4-.3,0.1,0.2-0.2.2v0.3l-0.2.1h0l-0.1-.4H15.1l-0.2.1V22.2l0.2-.1V22l0.1-.1-0.5-.2v0.2H14.6l-0.2.1h0l-0.2.4v0.4l-0.2.5H13.8L13.7,23V22.6l0.3-.8-0.3.2,0.2-.4,0.2-.1v0.1l0.5-.2,0.3,0.1-0.1-.2H14.6l-0.1-.1-0.8.1-0.3-.2,0.3-.3-0.4.2-0.3.3h0a20.93,20.93,0,0,0-2.3,8.2l0.1-.2v0.1l0.1-.2V29.1l-0.1-.3,0.2-.4,0.1-.1V28.2h0.1v0.1l0.3-.1,0.1-.3V28l0.4-.1L12.3,28l0.1-.1L12.6,28l0.1,0.1H13V28l0.2,0.1L13.1,28l0.1-.2H12.9l0.3-.1h0.3l0.1-.1v0.2l0.3-.1v0.1h0.2v0.1L14.4,28l0.1,0.1h0.1l0.2-.1L15,28.2v0.1l0.1,0.1h0.1v0.4l0.1-.1v0.2l0.1,0.2h0.1l0.1,0.3h0.1l0.1,0.1v0.1h0.1l0.2-.1V29.3l0.1-.1V28.9L16,28.5l-0.1-.1V28.3h0V28.2L15.8,28l-0.1-.2-0.1-.2V27.4l0.1-.1V27.2l0.1-.3,0.1-.1h0V26.7H16l0.2-.2h0.1V26.4l0.2-.1h0.2l0.1-.1,0.2-.1h0.1l0.1-.1V25.9H17.1l0.1-.1-0.1-.1h0.1l0.1,0.1,0.1-.1V25.6l-0.1.1V25.6H17.1V25.5l0.1,0.1,0.2-.1V25.4h0V25.3H17.3V25.2l0.1-.2h0V24.9L17,24.7v0l0.2,0.1V24.4l0.1-.1h0.1l-0.1.1v0.1h0v0.2l0.1,0.2H17.3v0.2l0.1,0.1V25l0.1-.2,0.1-.3-0.2-.3h0l0.2,0.1v0.1l0.2-.3V24l0.1-.1V23.8L18,23.9l0.2-.2,0.2-.1,0.1-.1h0.1l0.4-.1V23.3l0.1,0.1,0.1-.1h0.1l0.1-.1V23.1l-0.1.1H19.2L19,23.1l0.1-.1L19,22.8l0.1-.1,0.2-.3,0.1,0.1,0.2-.1,0.1-.2,0.1,0.1,0.4-.2V21.9h0.1l0.2-.1h0.1l0.3-.3H21l-0.1.1v0.1h0.2V22L21,21.9l-0.4.2v0.1H20.5l-0.1.2,0.2,0.3,0.2-.1,0.2-.3V22.2l0.3-.1,0.5-.2h0.1V21.8H21.8V21.7l-0.1.1-0.5-.1,0.1-.1L21,21.4l-0.1-.3V21H20.7l0.1-.1V20.7l-0.2-.1-0.1.1-0.2-.2h0.4l0.3-.2V20.1L20.6,20H20.3l-0.5.3-0.4.3-0.1.2-0.3.4,0.3-.3,0.1-.2V20.6h0.1l0.2-.3L20,20h0.2l0.2-.4,0.9-.1,0.2,0.1H22l0.1,0.1,0.4-.1,0.1-.1v0.1l0.5-.5,0.5-.1,0.4-.3-0.1-.5H24L23.7,18H23.3V17.7l-0.6.2-0.4.3,0.2-.3,0.6-.3h0.1V17.5l-0.7-.3H22.2l0.1-.2L22,16.8V16.7H21.8V16.5l-0.3-.1h0.3l0.1-.2L21.6,16l0.2-.2-0.4-.2,0.2-.1V15.4H21.5L21.4,15H21.1l0.3-.1-0.3-.4V14.2l-0.4.3,0.1,0.2-0.2.4H20.4l-0.4.4-0.1-.3-0.1.1L19.7,15l-0.5.1,0.3-.3-0.2-.4,0.1-.1L19.3,14l0.1-.2h0a24.33,24.33,0,0,0-2.5,2l0.2,0.7,0.1-.1v0.2H17.1L17,17l-0.7.5,0.3,0.3v0.6l0.1,0.2-0.3.2L16.6,19l-0.1.1L16.4,19l-0.1.1v0.2L16,19.1V18.9l-0.2-.2H15.6l0.2-.1-0.3-.3,0.1-.2-0.1-.4V17.5a19.41,19.41,0,0,0-2.1,2.9h0ZM16,23.3H15.9l-0.3.2H15.3l-0.2-.1,0.1-.1h0.2l0.2-.2,0.1-.1H16l0.2-.1h0.4Zm0.4-.8,0.5-.1,0.3,0.1V22.4l0.3-.1v0.4l-0.5.1-0.2-.1-0.2.1H16.5l-0.1-.1V22.5Z"/><path class="cls-7" d="M23.1,49.6l0.3-.3V49H23.3l-0.1-.2,0.1-.2-0.4-.3V48h0l0.2,0.3,0.3,0.1,0.7,0.2,0.2-.2,0.2-.3h0l0.2-.1,0.2-.4,0.3-.2,0.5-.9,0.2-.1V46.1L26,46l-0.1-.3,0.1-.2,0.7-.6,0.3-.1,0.2-.2V44.5H28l0.1-.2,0.3-.1V43.9l0.2-.2,0.1-.2,0.1-.1V43l0.1-.2,0.1-.6V41.4h0.2l0.3-.6,0.4-.2,0.4-.5,0.1-.6L30,38.8H29.6L29,38.3l-0.4-.2H28l-0.5-.2-0.3.1-0.1-.4-0.1.2V37.7l-0.8-.3-0.2.3H25.9l-0.2.3V37.8H25.1l0.2-.2-0.2-.2V37.2l0.5-.6H25.4l-0.3-.8L25,36h0l-0.4-.4-0.3-.1L24,35.4l-0.4.1-0.2-.1H23.3L23,35.2H22.8V35l-0.4-.3-0.2-.1H21.9l0.1-.1V34.4l-0.6-.3,0.3-.1H21.1l0.1,0.1H21l-0.2.1-0.2-.1L20.5,34H19.9l-0.1-.2-0.3-.1-0.1-.3-0.1.2,0.2,0.1-0.5.1-0.2.2,0.1,0.3-0.1.2-0.1-.1-0.1-.1V34.1l0.1-.1V33.9l-0.1-.1,0.1-.1,0.1-.1-0.1-.1-0.2.1-0.1.1-0.4.2H17.8L17.9,34l-0.1-.1-0.3.1v0.4l-0.1.1-0.1.1-0.2.1v0.2L17,34.7l-0.3-.3H16.3l-0.5.3-0.3-.1-0.1-.2H15.3l-0.2-.2L15,33.9l-0.1-.1,0.1-.1V33.1l0.1-.2V32.6h0l-0.3-.2H14.3l-0.4.1H13.4l-0.1-.1h0l0.2-.2,0.1-.5h0v0l0.2-.3V31.2l0.1-.2,0.2-.2V30.6l-0.4-.1-0.2.1H13.1l-0.1.1-0.1.6-0.2.1v0.1l-0.1.1-0.1-.1-0.7.2-0.2-.1-0.3-.1L11,31l-0.2-.3,0.1-.1-0.2-.3,0.1-.2V29.8l-0.1-.1V29.5c0,0.5-.1.9-0.1,1.4v1.3l0.1,0.1h0.4l0.3-.2,0.5,0.1,0.4,0.4,0.3,0.2H13l0.1,0.1h0.2L13.6,33l0.2-.1h0.1L14,33H13.9l0.6,0.6h0v0.3L14.7,34V33.9l0.4,0.3,0.1,0.2h0.2l0.3,0.1,0.1,0.2h0.1L16,34.9l0.2-.1H16l0.4-.3,0.5,0.2-0.1.1,0.1,0.3L17,35.3V36h0.1l-0.2.2v0.2H16.6v0.2H16.5v0.1h0l-0.3.3v0.2l-0.2.3H15.9v0.4L16,38l0.1-.1L16.2,38l-0.2.3h0l-0.3.2,0.1,0.4V39l0.5,0.3v0.3l0.2,0.2,0.3,1,0.5,0.7-0.1.1,1.4,0.9L19,42.9h0l0.2,1-0.1.5v0.3l-0.1.6v0.2l-0.3.9,0.1,0.4-0.1.1,0.1,0.9A20.71,20.71,0,0,0,22.3,50l0.9-.2Zm1.7-2.4h0.1l0.1-.4a0.1,0.1,0,0,0,.1.1l0.1-.1-0.2.4v0.1l-0.2.1H24.7Zm-0.8-2h0Zm-0.7,2.4h0.4l-0.1.2H23.3V47.6Zm-0.2-.8h0l-0.3,1.1ZM12.7,31.7h0Zm3.6,7.1,0.2-.1Zm0.9-.8-0.4.1,0.4-.1,0.5-.4-0.2-.3h0l0.2,0.3Zm2.1,4.7h0Zm0.2-.5h0L19.2,42V41.9l0.1-.1,0.1,0.1h0.2v0.2H19.5v0.1Zm0.3,2.1h0ZM20.1,43V42.9l0.1-.1V43l0.1,0.2Zm1.5,1.1h0Z"/><polygon class="cls-7" points="21.6 44.1 21.6 44.1 21.1 44 21.6 44.1"/><polygon class="cls-7" points="44.9 38 44.4 38.9 43.5 39.2 43.3 39.6 43.6 40.4 43 41 43.2 41.8 43.7 42.3 44.3 42 45.3 39.1 45.2 38.3 44.9 38"/><polygon class="cls-7" points="12.5 37.2 12.6 37.3 12.5 37.4 12.6 37.6 12.7 37.5 12.6 37.2 12.5 37.2"/><path class="cls-1" d="M77.08,45.87v8.67h-1V45.87h1Z"/><path class="cls-1" d="M83.54,45.07h0.94v9.48H83.54V53.79a2.28,2.28,0,0,1-1.85.91,2.85,2.85,0,0,1,0-5.68,2.23,2.23,0,0,1,1.85.9V45.07ZM80,51.84a1.8,1.8,0,0,0,1.77,2,2,2,0,0,0,0-4A1.79,1.79,0,0,0,80,51.84Z"/><path class="cls-1" d="M91.35,53.17a3.24,3.24,0,0,1-.66.87,2.62,2.62,0,0,1-1.79.66,2.58,2.58,0,0,1-2.67-2.82A2.62,2.62,0,0,1,88.84,49a2.41,2.41,0,0,1,2,1,3.62,3.62,0,0,1,.51,2h-4.2a1.73,1.73,0,0,0,1.72,1.83A1.64,1.64,0,0,0,90,53.48a2.16,2.16,0,0,0,.56-0.74Zm-0.92-1.91a1.62,1.62,0,0,0-1.59-1.4,1.64,1.64,0,0,0-1.59,1.4h3.17Z"/><path class="cls-1" d="M93.15,49.15h0.94v0.62A1.9,1.9,0,0,1,95.63,49a1.83,1.83,0,0,1,1.55.74,2.41,2.41,0,0,1,.31,1.44v3.34H96.55V51.23a1.58,1.58,0,0,0-.25-1,1.06,1.06,0,0,0-.88-0.39,1.18,1.18,0,0,0-.95.42,2.27,2.27,0,0,0-.39,1.46v2.82H93.15v-5.4Z"/><path class="cls-1" d="M100.54,50v4.54H99.61V50H99V49.15h0.57v-2h0.94v2h0.94V50h-0.94Z"/><path class="cls-1" d="M103.16,46.44a0.66,0.66,0,1,1-.66.66A0.67,0.67,0,0,1,103.16,46.44Zm0.47,2.7v5.4h-0.94v-5.4h0.94Z"/><path class="cls-1" d="M106.68,50v4.54h-0.94V50h-0.52V49.15h0.52V46.79a1.87,1.87,0,0,1,.52-1.52,1.68,1.68,0,0,1,1.08-.35A1.81,1.81,0,0,1,108,45v0.91a1.72,1.72,0,0,0-.61-0.12,0.65,0.65,0,0,0-.6.29,1.61,1.61,0,0,0-.12.78v2.25H108V50h-1.33Z"/><path class="cls-1" d="M111.12,54l-2.48-4.89h1.07L111.62,53l1.76-3.86h1l-4,8.39h-1Z"/><path class="cls-1" d="M115.77,53.37a0.65,0.65,0,1,1-.65.65A0.66,0.66,0,0,1,115.77,53.37Z"/><path class="cls-1" d="M126.83,52.1h-3.69l-1,2.44H121l4-9.09,3.89,9.09h-1.07Zm-0.38-.91L125,47.72l-1.48,3.47h2.94Z"/><path class="cls-1" d="M130.22,49.15h0.94v0.62A1.9,1.9,0,0,1,132.7,49a1.83,1.83,0,0,1,1.55.74,2.4,2.4,0,0,1,.31,1.44v3.34h-0.94V51.23a1.58,1.58,0,0,0-.25-1,1.06,1.06,0,0,0-.88-0.39,1.18,1.18,0,0,0-.95.42,2.28,2.28,0,0,0-.39,1.46v2.82h-0.94v-5.4Z"/><path class="cls-1" d="M140.79,49.15h0.94v5.4h-0.94V53.79a2.28,2.28,0,0,1-1.85.91,2.85,2.85,0,0,1,0-5.68,2.23,2.23,0,0,1,1.85.9V49.15Zm-3.51,2.69a1.8,1.8,0,0,0,1.77,2,2,2,0,0,0,0-4A1.79,1.79,0,0,0,137.28,51.84Z"/><path class="cls-1" d="M144.75,45.07v9.48h-0.94V45.07h0.94Z"/><path class="cls-1" d="M148.55,54l-2.48-4.89h1.07L149,53l1.75-3.86h1l-4,8.39h-1Z"/><path class="cls-1" d="M154.24,53.68H158v0.86h-5.62l3.9-4.54h-3.15V49.15h5Z"/><path class="cls-1" d="M164.11,53.17a3.23,3.23,0,0,1-.66.87,2.62,2.62,0,0,1-1.79.66A2.58,2.58,0,0,1,159,51.88,2.62,2.62,0,0,1,161.6,49a2.42,2.42,0,0,1,2,1,3.62,3.62,0,0,1,.51,2H160a1.73,1.73,0,0,0,1.72,1.83,1.64,1.64,0,0,0,1.1-.39,2.15,2.15,0,0,0,.56-0.74Zm-0.92-1.91a1.62,1.62,0,0,0-1.59-1.4,1.64,1.64,0,0,0-1.59,1.4h3.17Z"/><path class="cls-1" d="M166.5,53.37a0.65,0.65,0,1,1-.65.65A0.66,0.66,0,0,1,166.5,53.37Z"/><path class="cls-1" d="M179.41,47.78a4.28,4.28,0,0,0-1.13-.81,3.69,3.69,0,0,0-1.5-.34,3.58,3.58,0,0,0,0,7.15,3.6,3.6,0,0,0,1.61-.4,4,4,0,0,0,1-.73v1.2a4.51,4.51,0,0,1-2.61.85,4.49,4.49,0,1,1,.05-9,4.09,4.09,0,0,1,2.56.86v1.2Z"/><path class="cls-1" d="M180.93,51.87a2.86,2.86,0,1,1,2.86,2.83A2.77,2.77,0,0,1,180.93,51.87Zm1,0a1.9,1.9,0,1,0,1.9-2A1.87,1.87,0,0,0,181.89,51.87Z"/><path class="cls-1" d="M188.41,49.15h0.94v0.62a1.9,1.9,0,0,1,1.55-.75,1.83,1.83,0,0,1,1.55.74,2.4,2.4,0,0,1,.31,1.44v3.34h-0.94V51.23a1.58,1.58,0,0,0-.25-1,1.06,1.06,0,0,0-.88-0.39,1.18,1.18,0,0,0-.95.42,2.28,2.28,0,0,0-.39,1.46v2.82h-0.94v-5.4Z"/><path class="cls-1" d="M194.84,49.15h0.94v0.62a1.91,1.91,0,0,1,1.55-.75,1.83,1.83,0,0,1,1.55.74,2.41,2.41,0,0,1,.31,1.44v3.34h-0.94V51.23a1.58,1.58,0,0,0-.25-1,1.06,1.06,0,0,0-.88-0.39,1.18,1.18,0,0,0-.95.42,2.27,2.27,0,0,0-.39,1.46v2.82h-0.94v-5.4Z"/><path class="cls-1" d="M206.06,53.17a3.23,3.23,0,0,1-.66.87,2.62,2.62,0,0,1-1.79.66,2.58,2.58,0,0,1-2.67-2.82A2.62,2.62,0,0,1,203.55,49a2.42,2.42,0,0,1,2,1,3.62,3.62,0,0,1,.51,2h-4.2a1.73,1.73,0,0,0,1.72,1.83,1.64,1.64,0,0,0,1.11-.39,2.15,2.15,0,0,0,.56-0.74Zm-0.92-1.91a1.62,1.62,0,0,0-1.59-1.4,1.64,1.64,0,0,0-1.59,1.4h3.17Z"/><path class="cls-1" d="M212.08,50.66a2.18,2.18,0,0,0-1.69-.81,2,2,0,0,0,0,4,2.3,2.3,0,0,0,1.74-.85v1.12a2.88,2.88,0,0,1-1.72.56,2.84,2.84,0,1,1,0-5.68,2.85,2.85,0,0,1,1.68.52v1.12Z"/><path class="cls-1" d="M214.84,50v4.54H213.9V50h-0.57V49.15h0.57v-2h0.94v2h0.94V50h-0.94Z"/><path class="cls-1" d="M217.58,53.37a0.65,0.65,0,1,1-.65.65A0.66,0.66,0,0,1,217.58,53.37Z"/></svg>