<svg xmlns="http://www.w3.org/2000/svg" version="1.1" x="0" y="0" viewBox="0 0 186.3 44.5" xml:space="preserve"><style type="text/css">
	.st0{fill:#404F65;}
	.st1{fill:#DD3E5A;}
	.st2{fill:#ED784D;}
	.st3{fill:#F3AD91;}
	.st4{fill:#DE3E59;}
	.st5{fill:#F9D7C9;}
	.st6{fill:#3E5065;}
	.st7{fill:#287ECA;}
	.st8{fill:#139AA9;}
	.st9{fill:#FFFFFF;}
</style><rect class="st8" width="44.5" height="44.5"/><path class="st9" d="M54.2 5.4h4.2c1.4 0 2 0.1 2.6 0.4 1.3 0.6 2.1 1.8 2.1 3.5 0 1.5-0.8 3-2.2 3.5v0c0 0 0.2 0.2 0.4 0.6l2.6 4.8h-2.6l-2.6-4.8h-2.2v4.8h-2.3V5.4zM58.6 11.4c1.3 0 2-0.7 2-2 0-1.2-0.5-2-2.4-2h-1.8v4H58.6zM66.3 5.4H74v2h-5.4v3.4h4.3v2h-4.3v3.5h5.7v2h-8V5.4zM77.1 15c0 0 1.4 1.4 3.2 1.4 1 0 1.9-0.5 1.9-1.6 0-2.3-6.1-1.9-6.1-5.9 0-2.1 1.8-3.7 4.3-3.7 2.5 0 3.8 1.4 3.8 1.4l-1 1.9c0 0-1.2-1.1-2.8-1.1 -1.1 0-1.9 0.6-1.9 1.5 0 2.3 6.1 1.7 6.1 5.8 0 2-1.6 3.8-4.2 3.8 -2.9 0-4.4-1.8-4.4-1.8L77.1 15zM86.8 5.4h2.3v8.3c0 1.7 1.1 2.7 2.8 2.7 1.7 0 2.9-1 2.9-2.7V5.4h2.3v8.3c0 2.9-2.1 4.8-5.2 4.8 -3.1 0-5.2-2-5.2-4.8V5.4zM100.4 5.4h2.3v10.9h5.6v2h-7.9V5.4zM112 7.4h-4.2v-2h10.8v2h-4.2v10.9H112V7.4zM120.6 15c0 0 1.4 1.4 3.2 1.4 1 0 1.9-0.5 1.9-1.6 0-2.3-6.1-1.9-6.1-5.9 0-2.1 1.8-3.7 4.3-3.7 2.5 0 3.8 1.4 3.8 1.4l-1 1.9c0 0-1.2-1.1-2.8-1.1 -1.1 0-1.9 0.6-1.9 1.5 0 2.3 6.1 1.7 6.1 5.8 0 2-1.6 3.8-4.2 3.8 -2.9 0-4.4-1.8-4.4-1.8L120.6 15zM135.1 5.4h7.4v2h-5.1V11h4.3v2h-4.3v5.2h-2.3V5.4zM150.6 5.2c3.8 0 6.7 2.9 6.7 6.6 0 3.8-2.9 6.7-6.7 6.7 -3.8 0-6.7-3-6.7-6.7C143.9 8 146.8 5.2 150.6 5.2zM150.6 16.3c2.4 0 4.2-2 4.2-4.6 0-2.5-1.9-4.4-4.2-4.4s-4.2 1.9-4.2 4.4C146.3 14.4 148.2 16.3 150.6 16.3zM159.7 5.4h4.2c1.4 0 2 0.1 2.6 0.4 1.3 0.6 2.1 1.8 2.1 3.5 0 1.5-0.8 3-2.2 3.5v0c0 0 0.2 0.2 0.4 0.6l2.6 4.8h-2.6l-2.6-4.8h-2.2v4.8h-2.3V5.4zM164.2 11.4c1.3 0 2-0.7 2-2 0-1.2-0.5-2-2.4-2h-1.8v4H164.2zM54.2 25.8h4.4c4 0 6.6 2.4 6.6 6.4s-2.6 6.5-6.6 6.5h-4.4V25.8zM58.5 36.6c2.6 0 4.3-1.5 4.3-4.4 0-2.9-1.7-4.4-4.3-4.4h-1.9v8.8H58.5zM67.7 25.8h7.7v2h-5.4v3.4h4.3v2h-4.3v3.5h5.7v2h-8V25.8zM76.6 25.8h2.5l2.8 8.4c0.3 0.7 0.5 1.9 0.5 1.9h0c0 0 0.2-1.1 0.5-1.9l2.8-8.4h2.5l-4.7 12.9h-2.3L76.6 25.8zM90.1 25.8h7.7v2h-5.4v3.4h4.3v2h-4.3v3.5h5.7v2h-8V25.8zM100.7 25.8h2.3v10.9h5.6v2h-7.9V25.8zM116.1 25.6c3.8 0 6.7 2.9 6.7 6.6 0 3.8-2.9 6.7-6.7 6.7s-6.7-3-6.7-6.7C109.5 28.5 112.3 25.6 116.1 25.6zM116.1 36.7c2.4 0 4.2-2 4.2-4.6 0-2.5-1.9-4.4-4.2-4.4s-4.2 1.9-4.2 4.4C111.9 34.8 113.8 36.7 116.1 36.7zM125.3 25.8h5c2.4 0 4.1 1.7 4.1 4.2 0 2.5-1.7 4.2-4.1 4.2h-2.6v4.4h-2.3V25.8zM129.8 32.2c1.4 0 2.2-0.9 2.2-2.2 0-1.3-0.8-2.2-2.1-2.2h-2.2v4.4H129.8zM137.2 25.8h2.5l2.5 6.4c0.3 0.8 0.7 1.9 0.7 1.9h0c0 0 0.3-1.1 0.6-1.9l2.5-6.4h2.5l1 12.9h-2.3l-0.5-7.2c-0.1-0.9 0-2 0-2h0c0 0-0.4 1.3-0.7 2l-2.1 5h-2l-2.1-5c-0.3-0.7-0.7-2-0.7-2h0c0 0 0 1.2 0 2l-0.5 7.2h-2.3L137.2 25.8zM152.6 25.8h7.7v2h-5.4v3.4h4.3v2h-4.3v3.5h5.7v2h-8V25.8zM163.1 25.8h2.3l4.9 7.4c0.5 0.7 1.1 2 1.1 2h0c0 0-0.1-1.2-0.1-2v-7.4h2.3v12.9h-2.3l-4.9-7.4c-0.5-0.7-1.1-2-1.1-2h0c0 0 0.1 1.2 0.1 2v7.4h-2.3V25.8zM179.7 27.8h-4.2v-2h10.8v2h-4.2v10.9h-2.3V27.8z"/><path class="st9" d="M26.5 9.7c0-4-2.8-5.6-6.4-5.8L5.9 4v2 17.7h2v-7.9h9.8l5.8 7.9h2.5l-5.8-8.3C23.3 15.1 26.5 13.6 26.5 9.7zM7.9 5.7l11.9 0c2 0 4.5 1.4 4.5 4.2 0 2.7-2.4 4-4.5 4H7.9V5.7z"/><polygon class="st9" points="25.4 32.6 24 30.8 15.8 30.8 20.1 25.8 20.1 29.6 22.1 29.6 22.1 25 20.5 22.7 13.8 30.3 13.8 32.6 20.1 32.6 20.1 40.5 22.1 40.5 22.1 32.6 "/><path class="st9" d="M39.5 29.7c0-7.1-4.8-10.9-8.8-10.9 0 0-6 0-6 0l1.4 2c0 0 4 0 4 0 3.2 0 7.2 3.2 7.2 8.9 0 5.7-3.9 8.9-7.4 8.9 0 0-9.2 0-9.2 0v2l9.9 0C34.6 40.5 39.5 36.8 39.5 29.7z"/></svg>